<svg xmlns="http://www.w3.org/2000/svg" xmlns:xlink="http://www.w3.org/1999/xlink" viewBox="991 2447 27.625 38"><defs><style>.a{clip-path:url(#a);}.b{fill:#ffc300;}</style><clipPath id="a"><rect width="27.625" height="38"/></clipPath></defs><g transform="translate(991 2447)"><g class="a"><path class="b" d="M21.171,0H2.292A2.291,2.291,0,0,0,0,2.292V35.225a2.291,2.291,0,0,0,2.292,2.292h23.1a2.291,2.291,0,0,0,2.292-2.292V7.117Zm.543,3.438,2.9,3.137h-2.9Zm4.1,31.787a.389.389,0,0,1-.362.362H2.292a.389.389,0,0,1-.362-.362V2.292a.389.389,0,0,1,.362-.362H19.784V7.54a.953.953,0,0,0,.965.965h5.067V35.225ZM5.368,10.254H21.775a.724.724,0,0,1,0,1.448H5.368a.7.7,0,0,1-.724-.724.733.733,0,0,1,.724-.724Zm17.13,5.61a.7.7,0,0,1-.724.724H5.368a.724.724,0,0,1,0-1.448H21.775a.733.733,0,0,1,.724.724Zm0,4.7a.7.7,0,0,1-.724.724H5.368a.724.724,0,0,1,0-1.448H21.775a.733.733,0,0,1,.724.724Zm0,4.765a.7.7,0,0,1-.724.724H5.368a.724.724,0,0,1,0-1.448H21.775a.778.778,0,0,1,.724.724Zm0,0"/></g></g></svg>